<?xml version="1.0" encoding="iso-8859-1"?>
<!-- Generator: Adobe Illustrator 19.0.0, SVG Export Plug-In . SVG Version: 6.00 Build 0)  -->
<svg version="1.1" id="Capa_1" xmlns="http://www.w3.org/2000/svg" xmlns:xlink="http://www.w3.org/1999/xlink" x="0px" y="0px"
	 viewBox="0 0 512 512" style="enable-background:new 0 0 512 512;" xml:space="preserve">
<path style="fill:#C88C64;" d="M238.299,147.708c0-35.483,28.712-64.194,64.194-64.194l-18.166-31.628
	c-46.255,0-83.685,37.429-83.685,83.685L238.299,147.708z"/>
<path style="fill:#FF5A5A;" d="M337.499,119.27c-38.078-5.798-76.566,8.811-108.528,37.31
	c-31.962-28.499-70.449-43.109-108.528-37.31C41.487,131.294-5.8,204.649,14.824,310.054
	c20.625,105.405,101.353,202.945,180.31,190.922c12.064-1.837,23.382-5.624,33.838-11.084c10.456,5.459,21.774,9.247,33.838,11.084
	c78.957,12.024,159.685-85.517,180.31-190.922C463.744,204.649,416.458,131.294,337.499,119.27z"/>
<path style="fill:#F5B955;" d="M397.616,260.854c-7.825-16.339-21.478-27.172-37.025-27.172c-24.298,0-43.995,26.435-43.995,59.043
	s19.697,59.043,43.995,59.043c15.572,0,29.244-10.868,37.063-27.251L397.616,260.854z"/>
<g>
	<path style="fill:#A5DC69;" d="M326.961,264.728h89.131c16.488,0,29.854-13.366,29.854-29.854v-86.583
		c0-15.255,11.961-28.15,27.21-28.568c15.821-0.434,28.783,12.262,28.783,27.986v87.165c0,47.412-38.435,85.847-85.847,85.847
		h-89.464l0,0c-6.377-18.101-6.273-37.854,0.295-55.887L326.961,264.728z"/>
	<path style="fill:#A5DC69;" d="M94.904,12.838c-0.035,0.436-14.827,44.675,23.801,83.303s83.301,23.799,83.301,23.799
		s14.828-44.673-23.799-83.301S94.904,12.838,94.904,12.838z"/>
</g>
<path d="M457.945,103.711c2.63,0,5.209-1.07,7.069-2.93s2.93-4.439,2.93-7.069c0-2.63-1.07-5.209-2.93-7.069
	c-1.86-1.859-4.439-2.93-7.069-2.93c-2.63,0-5.209,1.07-7.069,2.93c-1.86,1.86-2.93,4.439-2.93,7.069c0,2.63,1.07,5.209,2.93,7.069
	C452.735,102.641,455.314,103.711,457.945,103.711z"/>
<path d="M490.441,103.711c2.63,0,5.209-1.07,7.069-2.93s2.93-4.439,2.93-7.069c0-2.63-1.07-5.209-2.93-7.069
	c-1.86-1.859-4.439-2.93-7.069-2.93c-2.63,0-5.209,1.07-7.069,2.93c-1.86,1.86-2.93,4.439-2.93,7.069c0,2.63,1.07,5.209,2.93,7.069
	C485.231,102.641,487.81,103.711,490.441,103.711z"/>
<path d="M433.893,345.919c-5.187-1.892-10.928,0.779-12.819,5.967c-9.45,25.907-22.632,50.76-38.12,71.871
	c-3.267,4.452-2.305,10.71,2.147,13.976c1.783,1.309,3.854,1.938,5.906,1.938c3.076,0,6.111-1.415,8.07-4.086
	c16.592-22.615,30.694-49.188,40.784-76.847C441.754,353.551,439.082,347.812,433.893,345.919z"/>
<path d="M355.538,454.972l-0.37,0.346c-4.031,3.775-4.238,10.103-0.463,14.133c1.969,2.102,4.63,3.164,7.3,3.164
	c2.45,0,4.904-0.895,6.832-2.701l0.37-0.346c4.031-3.775,4.238-10.103,0.463-14.133
	C365.896,451.404,359.568,451.195,355.538,454.972z"/>
<path d="M325.695,477.468c-20.889,12.061-41.54,16.643-61.379,13.623c-10.724-1.634-21.057-5.019-30.714-10.063
	c-2.901-1.514-6.357-1.514-9.257,0c-9.658,5.044-19.993,8.43-30.714,10.063c-33.692,5.127-70.312-12.005-103.111-48.25
	c-32.047-35.414-56.06-84.512-65.882-134.707c-10.264-52.456-3.18-99.443,19.948-132.307c17.992-25.566,44.743-41.705,77.365-46.673
	c33.73-5.131,69.375,7.254,100.368,34.889c3.793,3.381,9.517,3.381,13.309,0c30.992-27.635,66.634-40.024,100.368-34.889
	c25.509,3.885,47.965,14.909,64.942,31.882c3.906,3.905,10.236,3.904,14.14-0.002c3.905-3.906,3.904-10.236-0.001-14.141
	c-20.013-20.008-46.317-32.977-76.071-37.508c-28.983-4.413-58.876,1.908-86.716,17.943c8.071-19.811,27.529-33.816,50.205-33.816
	c3.569,0,6.866-1.901,8.654-4.989c1.788-3.089,1.794-6.895,0.017-9.989l-18.166-31.628c-1.783-3.105-5.09-5.019-8.67-5.019
	c-29.032,0-55.022,13.275-72.219,34.074c-3.598-14.604-11.366-30.923-26.832-46.39C142.774-12.93,93.817,2.666,91.755,3.349
	c-3.264,1.083-5.701,3.749-6.536,7.005c-2.473,8.628-12.81,53.632,26.417,92.859c2.246,2.246,4.508,4.326,6.782,6.259
	c-37.902,5.901-69.08,24.856-90.187,54.847C1.938,201.681-6.308,254.121,5.011,311.974c10.501,53.662,36.263,106.253,70.679,144.286
	c37.449,41.384,80.405,60.777,120.949,54.6c11.21-1.708,22.061-5.003,32.332-9.814c10.27,4.811,21.122,8.106,32.333,9.814
	c4.989,0.76,10.002,1.14,15.035,1.14c19.619-0.001,39.521-5.764,59.354-17.214c4.782-2.761,6.421-8.876,3.66-13.658
	C336.592,476.345,330.476,474.707,325.695,477.468z M148.626,80.701h-30.243c-13.105-16.835-16.279-33.948-16.286-46.53
	L148.626,80.701z M168.623,100.699l12.052,12.052c-10.962-0.041-25.643-2.483-40.541-12.052H168.623z M278.664,62.1l7.585,13.206
	c-31.652,7.097-55.71,34.485-57.786,67.733c-5.748-4.647-11.634-8.843-17.624-12.589c0.217-3.144,0.616-6.237,1.217-9.261
	c0.287-1.061,0.65-2.531,1.019-4.357C220.924,87.011,247.021,64.515,278.664,62.1z M194.874,98.668l-37.893-37.893v-28.58
	c4.731,3.07,9.486,6.847,14.155,11.517C190.637,63.211,194.855,84.199,194.874,98.668z M136.984,22.965v17.813l-20.802-20.802
	C122.187,19.983,129.309,20.719,136.984,22.965z"/>
<path d="M94.035,181.968c4.5-3.2,5.554-9.442,2.354-13.942c-3.2-4.5-9.443-5.554-13.942-2.354
	c-8.316,5.913-15.553,13.202-21.507,21.664c-19.963,28.366-25.885,69.902-16.677,116.957c0.934,4.771,5.116,8.081,9.802,8.081
	c0.637,0,1.283-0.062,1.931-0.188c5.419-1.061,8.953-6.312,7.893-11.732c-8.151-41.657-3.391-77.742,13.405-101.61
	C81.939,192.242,87.572,186.564,94.035,181.968z"/>
<path d="M124.882,148.936c-0.025,0.004-0.143,0.021-0.169,0.026c-5.438,0.863-9.11,5.954-8.268,11.397
	c0.764,4.937,5.056,8.464,9.912,8.464c0.497,0,1.001-0.037,1.507-0.113c0.025-0.004,0.143-0.021,0.169-0.026
	c5.438-0.863,9.11-5.954,8.268-11.397C135.458,151.844,130.331,148.115,124.882,148.936z"/>
<path d="M473.943,109.712c-20.95,0-37.995,17.045-37.995,37.995v87.166c0,10.949-8.907,19.856-19.856,19.856h-10.353
	c-9.979-19.481-26.731-31.046-45.147-31.046c-14.988,0-28.883,7.57-39.126,21.317c-9.587,12.866-14.867,29.814-14.867,47.723
	s5.279,34.857,14.867,47.723c10.243,13.747,24.139,21.317,39.126,21.317c18.423,0,35.171-11.563,45.149-31.046h10.351
	c52.849,0,95.846-42.997,95.846-95.846v-87.166C511.938,126.757,494.893,109.712,473.943,109.712z M360.59,243.681
	c7.809,0,15.303,3.996,21.307,11.049h-42.514C345.246,247.857,352.651,243.681,360.59,243.681z M360.59,341.769
	c-7.939,0-15.344-4.177-21.205-11.049H381.9C375.896,337.773,368.404,341.769,360.59,341.769z M491.94,234.874
	c0,41.823-34.026,75.849-75.849,75.849H329.46c-0.13,0-0.256,0.015-0.385,0.02c-1.591-5.61-2.48-11.694-2.48-18.018
	c0-6.316,0.888-12.393,2.475-17.998h53.55v12.585c0,5.521,4.476,9.999,9.999,9.999s9.999-4.477,9.999-9.999v-12.585h13.473
	c1.021,0,2.031-0.051,3.033-0.127l6.88,11.403c1.878,3.113,5.182,4.835,8.57,4.835c1.759,0,3.541-0.465,5.156-1.439
	c4.728-2.854,6.248-8.999,3.396-13.727l-4.708-7.803c2.956-2.007,5.622-4.405,7.94-7.111l16.36,3.391
	c0.685,0.142,1.367,0.21,2.04,0.21c4.64,0,8.802-3.249,9.781-7.972c1.121-5.407-2.354-10.699-7.762-11.82l-11.514-2.387
	c0.441-2.371,0.683-4.81,0.683-7.307v-14.189H466.6c5.522,0,9.999-4.477,9.999-9.999s-4.476-9.999-9.999-9.999h-10.655v-20.194
	H466.6c5.522,0,9.999-4.477,9.999-9.999c0-5.521-4.476-9.999-9.999-9.999h-10.655v-12.787c0-9.924,8.074-17.998,17.998-17.998
	s17.998,8.074,17.998,17.998v87.166H491.94z"/>
<g>
</g>
<g>
</g>
<g>
</g>
<g>
</g>
<g>
</g>
<g>
</g>
<g>
</g>
<g>
</g>
<g>
</g>
<g>
</g>
<g>
</g>
<g>
</g>
<g>
</g>
<g>
</g>
<g>
</g>
</svg>
